<svg xmlns="http://www.w3.org/2000/svg" xmlns:xlink="http://www.w3.org/1999/xlink" width="600" zoomAndPan="magnify" viewBox="0 0 450 149.999998" height="200" preserveAspectRatio="xMidYMid meet" version="1.0"><defs><g><g id="id1"/></g><clipPath id="id2"><path d="M 198.585938 25.007812 L 251.414062 25.007812 L 251.414062 77.832031 L 198.585938 77.832031 Z M 198.585938 25.007812 " clip-rule="nonzero"/></clipPath><clipPath id="id3"><path d="M 225 38.042969 L 229.183594 25.007812 L 229.132812 38.699219 L 237.140625 27.585938 L 232.859375 40.589844 L 243.910156 32.507812 L 235.820312 43.558594 L 248.824219 39.28125 L 237.710938 47.289062 L 251.402344 47.234375 L 238.375 51.417969 L 251.414062 55.601562 L 237.71875 55.550781 L 248.835938 63.558594 L 235.828125 59.28125 L 243.910156 70.332031 L 232.859375 62.238281 L 237.140625 75.242188 L 229.132812 64.128906 L 229.183594 77.820312 L 225 64.792969 L 220.816406 77.832031 L 220.867188 64.140625 L 212.859375 75.253906 L 217.140625 62.25 L 206.089844 70.332031 L 214.179688 59.28125 L 201.175781 63.558594 L 212.289062 55.550781 L 198.585938 55.601562 L 211.625 51.417969 L 198.585938 47.234375 L 212.28125 47.289062 L 201.175781 39.28125 L 214.179688 43.558594 L 206.089844 32.507812 L 217.140625 40.601562 L 212.859375 27.59375 L 220.867188 38.710938 L 220.816406 25.007812 Z M 225 38.042969 " clip-rule="nonzero"/></clipPath></defs><g clip-path="url(#id2)"><g clip-path="url(#id3)"><path fill="rgb(69.40918%, 76.469421%, 72.158813%)" d="M 198.585938 25.007812 L 251.414062 25.007812 L 251.414062 77.832031 L 198.585938 77.832031 Z M 198.585938 25.007812 " fill-opacity="1" fill-rule="nonzero"/></g></g><g fill="rgb(97.648621%, 100%, 92.939758%)" fill-opacity="1"><g transform="translate(133.482371, 108.276027)"><g><path d="M 11.015625 -3.578125 L 16.21875 -15.40625 L 20.703125 -15.40625 L 20.703125 -14.65625 C 20.273438 -14.632812 19.929688 -14.578125 19.671875 -14.484375 C 19.410156 -14.390625 19.207031 -14.234375 19.0625 -14.015625 C 18.925781 -13.796875 18.832031 -13.492188 18.78125 -13.109375 C 18.738281 -12.722656 18.71875 -12.226562 18.71875 -11.625 L 18.71875 -3.78125 C 18.71875 -3.113281 18.742188 -2.585938 18.796875 -2.203125 C 18.847656 -1.816406 18.945312 -1.515625 19.09375 -1.296875 C 19.25 -1.085938 19.472656 -0.945312 19.765625 -0.875 C 20.054688 -0.8125 20.429688 -0.773438 20.890625 -0.765625 L 20.890625 0 L 14.40625 0 L 14.40625 -0.765625 C 14.875 -0.773438 15.25 -0.816406 15.53125 -0.890625 C 15.820312 -0.960938 16.046875 -1.097656 16.203125 -1.296875 C 16.367188 -1.492188 16.476562 -1.773438 16.53125 -2.140625 C 16.582031 -2.515625 16.609375 -3.015625 16.609375 -3.640625 L 16.609375 -12.9375 L 16.40625 -12.9375 L 10.5625 0.203125 L 10.125 0.203125 L 4.390625 -12.9375 L 4.296875 -12.9375 L 4.296875 -3.78125 C 4.296875 -3.113281 4.320312 -2.585938 4.375 -2.203125 C 4.4375 -1.816406 4.539062 -1.515625 4.6875 -1.296875 C 4.84375 -1.085938 5.0625 -0.945312 5.34375 -0.875 C 5.632812 -0.8125 6.015625 -0.773438 6.484375 -0.765625 L 6.484375 0 L 0.90625 0 L 0.90625 -0.765625 C 1.363281 -0.773438 1.738281 -0.816406 2.03125 -0.890625 C 2.320312 -0.960938 2.546875 -1.097656 2.703125 -1.296875 C 2.859375 -1.492188 2.960938 -1.773438 3.015625 -2.140625 C 3.078125 -2.515625 3.109375 -3.015625 3.109375 -3.640625 L 3.109375 -11.765625 C 3.109375 -12.328125 3.082031 -12.789062 3.03125 -13.15625 C 2.988281 -13.519531 2.894531 -13.804688 2.75 -14.015625 C 2.613281 -14.234375 2.410156 -14.382812 2.140625 -14.46875 C 1.867188 -14.5625 1.519531 -14.625 1.09375 -14.65625 L 1.09375 -15.40625 L 5.890625 -15.40625 L 10.921875 -3.578125 Z M 11.015625 -3.578125 "/></g></g></g><g fill="rgb(97.648621%, 100%, 92.939758%)" fill-opacity="1"><g transform="translate(155.294726, 108.276027)"><g><path d="M 6.984375 -5.921875 C 6.222656 -5.628906 5.578125 -5.34375 5.046875 -5.0625 C 4.523438 -4.78125 4.101562 -4.5 3.78125 -4.21875 C 3.457031 -3.9375 3.222656 -3.65625 3.078125 -3.375 C 2.941406 -3.101562 2.875 -2.816406 2.875 -2.515625 C 2.875 -2.078125 3.019531 -1.71875 3.3125 -1.4375 C 3.613281 -1.15625 4.003906 -1.015625 4.484375 -1.015625 C 4.828125 -1.015625 5.148438 -1.101562 5.453125 -1.28125 C 5.753906 -1.457031 6.015625 -1.691406 6.234375 -1.984375 C 6.460938 -2.285156 6.644531 -2.640625 6.78125 -3.046875 C 6.914062 -3.453125 6.984375 -3.882812 6.984375 -4.34375 Z M 6.984375 -6.78125 L 6.984375 -7.609375 C 6.984375 -9.234375 6.289062 -10.046875 4.90625 -10.046875 C 4.675781 -10.046875 4.476562 -10.023438 4.3125 -9.984375 C 4.15625 -9.941406 4.023438 -9.875 3.921875 -9.78125 C 3.816406 -9.6875 3.71875 -9.550781 3.625 -9.375 C 3.539062 -9.207031 3.457031 -9 3.375 -8.75 C 3.226562 -8.363281 3.082031 -8.101562 2.9375 -7.96875 C 2.800781 -7.84375 2.601562 -7.78125 2.34375 -7.78125 C 1.675781 -7.78125 1.34375 -8.113281 1.34375 -8.78125 C 1.34375 -9.425781 1.679688 -9.925781 2.359375 -10.28125 C 3.035156 -10.632812 4.003906 -10.8125 5.265625 -10.8125 C 6.597656 -10.8125 7.546875 -10.570312 8.109375 -10.09375 C 8.671875 -9.625 8.953125 -8.820312 8.953125 -7.6875 L 8.953125 -3.203125 C 8.953125 -1.679688 9.25 -0.921875 9.84375 -0.921875 C 10.03125 -0.921875 10.207031 -0.941406 10.375 -0.984375 C 10.550781 -1.035156 10.703125 -1.160156 10.828125 -1.359375 L 11.109375 -0.875 C 10.953125 -0.570312 10.660156 -0.316406 10.234375 -0.109375 C 9.804688 0.0976562 9.359375 0.203125 8.890625 0.203125 C 8.296875 0.203125 7.851562 0.015625 7.5625 -0.359375 C 7.28125 -0.734375 7.140625 -1.257812 7.140625 -1.9375 L 7.046875 -1.9375 C 6.703125 -1.28125 6.222656 -0.757812 5.609375 -0.375 C 4.992188 0 4.3125 0.1875 3.5625 0.1875 C 2.71875 0.1875 2.054688 -0.0234375 1.578125 -0.453125 C 1.097656 -0.878906 0.859375 -1.457031 0.859375 -2.1875 C 0.859375 -2.5 0.914062 -2.800781 1.03125 -3.09375 C 1.144531 -3.394531 1.328125 -3.675781 1.578125 -3.9375 C 1.835938 -4.207031 2.171875 -4.472656 2.578125 -4.734375 C 2.992188 -4.992188 3.503906 -5.257812 4.109375 -5.53125 Z M 6.984375 -6.78125 "/></g></g></g><g fill="rgb(97.648621%, 100%, 92.939758%)" fill-opacity="1"><g transform="translate(166.381003, 108.276027)"><g><path d="M 4.15625 -3.1875 C 4.15625 -2.632812 4.171875 -2.195312 4.203125 -1.875 C 4.234375 -1.5625 4.300781 -1.320312 4.40625 -1.15625 C 4.519531 -0.988281 4.679688 -0.875 4.890625 -0.8125 C 5.109375 -0.757812 5.410156 -0.722656 5.796875 -0.703125 L 5.796875 0 L 0.484375 0 L 0.484375 -0.703125 C 0.867188 -0.722656 1.171875 -0.757812 1.390625 -0.8125 C 1.617188 -0.875 1.796875 -0.984375 1.921875 -1.140625 C 2.046875 -1.296875 2.125 -1.523438 2.15625 -1.828125 C 2.1875 -2.128906 2.203125 -2.535156 2.203125 -3.046875 L 2.203125 -11.421875 C 2.203125 -12.210938 2.191406 -12.84375 2.171875 -13.3125 C 2.148438 -13.78125 2.113281 -14.132812 2.0625 -14.375 C 2.03125 -14.53125 1.984375 -14.65625 1.921875 -14.75 C 1.867188 -14.851562 1.78125 -14.9375 1.65625 -15 C 1.539062 -15.0625 1.378906 -15.101562 1.171875 -15.125 C 0.972656 -15.15625 0.726562 -15.171875 0.4375 -15.171875 L 0.4375 -15.859375 L 4.125 -16.609375 L 4.125 -8.984375 L 4.203125 -8.984375 C 4.398438 -9.253906 4.648438 -9.5 4.953125 -9.71875 C 5.253906 -9.9375 5.578125 -10.125 5.921875 -10.28125 C 6.265625 -10.445312 6.628906 -10.578125 7.015625 -10.671875 C 7.398438 -10.765625 7.769531 -10.8125 8.125 -10.8125 C 8.738281 -10.8125 9.300781 -10.703125 9.8125 -10.484375 C 10.332031 -10.273438 10.734375 -9.988281 11.015625 -9.625 C 11.234375 -9.320312 11.394531 -8.921875 11.5 -8.421875 C 11.613281 -7.921875 11.671875 -7.242188 11.671875 -6.390625 L 11.671875 -3.1875 C 11.671875 -2.632812 11.679688 -2.203125 11.703125 -1.890625 C 11.734375 -1.578125 11.804688 -1.332031 11.921875 -1.15625 C 12.035156 -0.988281 12.195312 -0.875 12.40625 -0.8125 C 12.625 -0.757812 12.925781 -0.722656 13.3125 -0.703125 L 13.3125 0 L 8 0 L 8 -0.703125 C 8.375 -0.710938 8.675781 -0.75 8.90625 -0.8125 C 9.132812 -0.875 9.304688 -0.984375 9.421875 -1.140625 C 9.535156 -1.296875 9.609375 -1.523438 9.640625 -1.828125 C 9.671875 -2.128906 9.6875 -2.535156 9.6875 -3.046875 L 9.6875 -5.5625 C 9.6875 -7.0625 9.507812 -8.125 9.15625 -8.75 C 8.8125 -9.382812 8.234375 -9.703125 7.421875 -9.703125 C 6.796875 -9.703125 6.222656 -9.539062 5.703125 -9.21875 C 5.191406 -8.90625 4.789062 -8.46875 4.5 -7.90625 C 4.4375 -7.757812 4.378906 -7.625 4.328125 -7.5 C 4.285156 -7.375 4.25 -7.226562 4.21875 -7.0625 C 4.195312 -6.90625 4.179688 -6.722656 4.171875 -6.515625 C 4.160156 -6.304688 4.15625 -6.050781 4.15625 -5.75 Z M 4.15625 -3.1875 "/></g></g></g><g fill="rgb(97.648621%, 100%, 92.939758%)" fill-opacity="1"><g transform="translate(180.148805, 108.276027)"><g><path d="M 9.6875 -1.6875 L 9.609375 -1.6875 C 9.128906 -1 8.617188 -0.507812 8.078125 -0.21875 C 7.535156 0.0625 6.898438 0.203125 6.171875 0.203125 C 5.410156 0.203125 4.710938 0.0664062 4.078125 -0.203125 C 3.441406 -0.484375 2.890625 -0.863281 2.421875 -1.34375 C 1.960938 -1.832031 1.601562 -2.414062 1.34375 -3.09375 C 1.082031 -3.78125 0.953125 -4.523438 0.953125 -5.328125 C 0.953125 -6.109375 1.082031 -6.835938 1.34375 -7.515625 C 1.601562 -8.191406 1.960938 -8.769531 2.421875 -9.25 C 2.890625 -9.738281 3.441406 -10.117188 4.078125 -10.390625 C 4.722656 -10.671875 5.421875 -10.8125 6.171875 -10.8125 C 6.804688 -10.8125 7.375 -10.703125 7.875 -10.484375 C 8.375 -10.273438 8.859375 -9.9375 9.328125 -9.46875 L 9.328125 -11.515625 C 9.328125 -12.273438 9.316406 -12.90625 9.296875 -13.40625 C 9.273438 -13.914062 9.242188 -14.265625 9.203125 -14.453125 C 9.140625 -14.742188 8.953125 -14.945312 8.640625 -15.0625 C 8.335938 -15.1875 7.835938 -15.25 7.140625 -15.25 L 7.140625 -15.859375 L 11.25 -16.609375 L 11.25 -5.0625 C 11.25 -4.144531 11.253906 -3.390625 11.265625 -2.796875 C 11.273438 -2.203125 11.316406 -1.773438 11.390625 -1.515625 C 11.429688 -1.359375 11.476562 -1.222656 11.53125 -1.109375 C 11.59375 -1.003906 11.679688 -0.921875 11.796875 -0.859375 C 11.910156 -0.804688 12.0625 -0.765625 12.25 -0.734375 C 12.445312 -0.710938 12.703125 -0.703125 13.015625 -0.703125 L 13.015625 -0.015625 L 9.6875 0.203125 Z M 9.28125 -6.109375 C 9.28125 -6.796875 9.242188 -7.316406 9.171875 -7.671875 C 9.097656 -8.035156 8.957031 -8.351562 8.75 -8.625 C 8.4375 -9.03125 8.039062 -9.332031 7.5625 -9.53125 C 7.09375 -9.738281 6.628906 -9.84375 6.171875 -9.84375 C 5.203125 -9.84375 4.46875 -9.445312 3.96875 -8.65625 C 3.46875 -7.863281 3.21875 -6.785156 3.21875 -5.421875 C 3.21875 -4.710938 3.28125 -4.070312 3.40625 -3.5 C 3.539062 -2.925781 3.726562 -2.4375 3.96875 -2.03125 C 4.21875 -1.625 4.523438 -1.3125 4.890625 -1.09375 C 5.253906 -0.875 5.679688 -0.765625 6.171875 -0.765625 C 6.410156 -0.765625 6.648438 -0.789062 6.890625 -0.84375 C 7.140625 -0.894531 7.378906 -0.976562 7.609375 -1.09375 C 7.847656 -1.207031 8.066406 -1.335938 8.265625 -1.484375 C 8.460938 -1.640625 8.628906 -1.816406 8.765625 -2.015625 C 8.953125 -2.316406 9.082031 -2.671875 9.15625 -3.078125 C 9.238281 -3.492188 9.28125 -4.0625 9.28125 -4.78125 Z M 9.28125 -6.109375 "/></g></g></g><g fill="rgb(97.648621%, 100%, 92.939758%)" fill-opacity="1"><g transform="translate(193.656452, 108.276027)"><g><path d="M 4.5625 -3.1875 C 4.5625 -2.664062 4.582031 -2.25 4.625 -1.9375 C 4.675781 -1.625 4.769531 -1.375 4.90625 -1.1875 C 5.039062 -1.007812 5.226562 -0.882812 5.46875 -0.8125 C 5.707031 -0.75 6.023438 -0.710938 6.421875 -0.703125 L 6.421875 0 L 0.6875 0 L 0.6875 -0.703125 C 1.082031 -0.710938 1.40625 -0.753906 1.65625 -0.828125 C 1.914062 -0.898438 2.113281 -1.019531 2.25 -1.1875 C 2.394531 -1.351562 2.488281 -1.585938 2.53125 -1.890625 C 2.582031 -2.191406 2.609375 -2.578125 2.609375 -3.046875 L 2.609375 -5.609375 C 2.609375 -6.378906 2.597656 -7.015625 2.578125 -7.515625 C 2.554688 -8.015625 2.519531 -8.359375 2.46875 -8.546875 C 2.394531 -8.847656 2.238281 -9.054688 2 -9.171875 C 1.757812 -9.285156 1.304688 -9.34375 0.640625 -9.34375 L 0.640625 -10.046875 L 4.5625 -10.8125 Z M 2.265625 -14.875 C 2.265625 -15.21875 2.382812 -15.507812 2.625 -15.75 C 2.863281 -15.988281 3.15625 -16.109375 3.5 -16.109375 C 3.84375 -16.109375 4.132812 -15.988281 4.375 -15.75 C 4.625 -15.507812 4.75 -15.21875 4.75 -14.875 C 4.75 -14.519531 4.625 -14.222656 4.375 -13.984375 C 4.132812 -13.742188 3.84375 -13.625 3.5 -13.625 C 3.15625 -13.625 2.863281 -13.742188 2.625 -13.984375 C 2.382812 -14.222656 2.265625 -14.519531 2.265625 -14.875 Z M 2.265625 -14.875 "/></g></g></g><g fill="rgb(97.648621%, 100%, 92.939758%)" fill-opacity="1"><g transform="translate(200.480321, 108.276027)"><g><path d="M 4.328125 -3.140625 C 4.328125 -2.597656 4.335938 -2.164062 4.359375 -1.84375 C 4.390625 -1.53125 4.460938 -1.289062 4.578125 -1.125 C 4.691406 -0.957031 4.859375 -0.847656 5.078125 -0.796875 C 5.296875 -0.742188 5.597656 -0.707031 5.984375 -0.6875 L 5.984375 0 L 0.734375 0 L 0.734375 -0.6875 C 1.109375 -0.707031 1.40625 -0.742188 1.625 -0.796875 C 1.851562 -0.847656 2.023438 -0.953125 2.140625 -1.109375 C 2.265625 -1.273438 2.34375 -1.503906 2.375 -1.796875 C 2.40625 -2.085938 2.421875 -2.488281 2.421875 -3 L 2.421875 -5.671875 C 2.421875 -7.253906 2.378906 -8.21875 2.296875 -8.5625 C 2.253906 -8.738281 2.203125 -8.882812 2.140625 -9 C 2.085938 -9.113281 2 -9.195312 1.875 -9.25 C 1.757812 -9.3125 1.609375 -9.351562 1.421875 -9.375 C 1.234375 -9.394531 0.992188 -9.40625 0.703125 -9.40625 L 0.703125 -10.046875 L 3.90625 -10.8125 L 4.140625 -8.828125 L 4.21875 -8.828125 C 4.726562 -9.453125 5.320312 -9.9375 6 -10.28125 C 6.6875 -10.632812 7.425781 -10.8125 8.21875 -10.8125 C 8.832031 -10.8125 9.394531 -10.707031 9.90625 -10.5 C 10.414062 -10.300781 10.800781 -10.03125 11.0625 -9.6875 C 11.289062 -9.382812 11.453125 -8.988281 11.546875 -8.5 C 11.640625 -8.007812 11.6875 -7.335938 11.6875 -6.484375 L 11.6875 -3.140625 C 11.6875 -2.597656 11.703125 -2.164062 11.734375 -1.84375 C 11.773438 -1.53125 11.847656 -1.289062 11.953125 -1.125 C 12.054688 -0.957031 12.21875 -0.847656 12.4375 -0.796875 C 12.65625 -0.742188 12.945312 -0.707031 13.3125 -0.6875 L 13.3125 0 L 8.125 0 L 8.125 -0.6875 C 8.5 -0.695312 8.796875 -0.726562 9.015625 -0.78125 C 9.234375 -0.84375 9.398438 -0.953125 9.515625 -1.109375 C 9.628906 -1.273438 9.703125 -1.507812 9.734375 -1.8125 C 9.765625 -2.113281 9.78125 -2.507812 9.78125 -3 L 9.78125 -5.640625 C 9.78125 -6.398438 9.738281 -7.039062 9.65625 -7.5625 C 9.582031 -8.082031 9.453125 -8.503906 9.265625 -8.828125 C 9.085938 -9.148438 8.851562 -9.378906 8.5625 -9.515625 C 8.269531 -9.660156 7.914062 -9.734375 7.5 -9.734375 C 6.90625 -9.734375 6.359375 -9.570312 5.859375 -9.25 C 5.359375 -8.9375 4.96875 -8.507812 4.6875 -7.96875 C 4.613281 -7.832031 4.550781 -7.703125 4.5 -7.578125 C 4.457031 -7.460938 4.421875 -7.320312 4.390625 -7.15625 C 4.367188 -7 4.351562 -6.816406 4.34375 -6.609375 C 4.332031 -6.410156 4.328125 -6.148438 4.328125 -5.828125 Z M 4.328125 -3.140625 "/></g></g></g><g fill="rgb(97.648621%, 100%, 92.939758%)" fill-opacity="1"><g transform="translate(214.268131, 108.276027)"><g/></g></g><g fill="rgb(97.648621%, 100%, 92.939758%)" fill-opacity="1"><g transform="translate(220.011387, 108.276027)"><g><path d="M 9.765625 -5.578125 L 4.421875 -5.578125 C 4.191406 -5.035156 4 -4.550781 3.84375 -4.125 C 3.6875 -3.707031 3.554688 -3.34375 3.453125 -3.03125 C 3.347656 -2.726562 3.273438 -2.46875 3.234375 -2.25 C 3.203125 -2.039062 3.1875 -1.867188 3.1875 -1.734375 C 3.1875 -1.367188 3.304688 -1.113281 3.546875 -0.96875 C 3.785156 -0.832031 4.1875 -0.765625 4.75 -0.765625 L 4.75 0 L -0.125 0 L -0.125 -0.765625 C 0.1875 -0.804688 0.453125 -0.859375 0.671875 -0.921875 C 0.890625 -0.984375 1.082031 -1.070312 1.25 -1.1875 C 1.414062 -1.3125 1.5625 -1.472656 1.6875 -1.671875 C 1.8125 -1.867188 1.9375 -2.101562 2.0625 -2.375 L 7.265625 -15.40625 L 8.125 -15.40625 L 12.671875 -4.125 C 12.972656 -3.375 13.238281 -2.773438 13.46875 -2.328125 C 13.695312 -1.878906 13.914062 -1.539062 14.125 -1.3125 C 14.34375 -1.09375 14.570312 -0.945312 14.8125 -0.875 C 15.0625 -0.8125 15.363281 -0.78125 15.71875 -0.78125 L 15.71875 0 L 9.1875 0 L 9.1875 -0.78125 C 9.894531 -0.78125 10.378906 -0.847656 10.640625 -0.984375 C 10.910156 -1.117188 11.046875 -1.335938 11.046875 -1.640625 C 11.046875 -1.773438 11.039062 -1.898438 11.03125 -2.015625 C 11.019531 -2.128906 10.992188 -2.25 10.953125 -2.375 C 10.921875 -2.507812 10.875 -2.660156 10.8125 -2.828125 C 10.757812 -2.992188 10.6875 -3.191406 10.59375 -3.421875 Z M 4.828125 -6.578125 L 9.390625 -6.578125 L 7.171875 -12.484375 Z M 4.828125 -6.578125 "/></g></g></g><g fill="rgb(97.648621%, 100%, 92.939758%)" fill-opacity="1"><g transform="translate(235.46014, 108.276027)"><g><path d="M 10.125 -1.65625 C 9.644531 -1.070312 9.023438 -0.613281 8.265625 -0.28125 C 7.503906 0.0390625 6.679688 0.203125 5.796875 0.203125 C 5.097656 0.203125 4.453125 0.0703125 3.859375 -0.1875 C 3.265625 -0.445312 2.753906 -0.8125 2.328125 -1.28125 C 1.898438 -1.757812 1.566406 -2.332031 1.328125 -3 C 1.097656 -3.664062 0.984375 -4.40625 0.984375 -5.21875 C 0.984375 -6.070312 1.113281 -6.84375 1.375 -7.53125 C 1.644531 -8.21875 2.023438 -8.804688 2.515625 -9.296875 C 3.003906 -9.785156 3.585938 -10.160156 4.265625 -10.421875 C 4.953125 -10.679688 5.710938 -10.8125 6.546875 -10.8125 C 7.066406 -10.8125 7.539062 -10.765625 7.96875 -10.671875 C 8.394531 -10.585938 8.765625 -10.46875 9.078125 -10.3125 C 9.390625 -10.164062 9.628906 -9.976562 9.796875 -9.75 C 9.972656 -9.53125 10.0625 -9.296875 10.0625 -9.046875 C 10.0625 -8.773438 9.972656 -8.566406 9.796875 -8.421875 C 9.628906 -8.273438 9.394531 -8.203125 9.09375 -8.203125 C 8.851562 -8.203125 8.648438 -8.25 8.484375 -8.34375 C 8.328125 -8.445312 8.117188 -8.675781 7.859375 -9.03125 C 7.597656 -9.332031 7.34375 -9.546875 7.09375 -9.671875 C 6.84375 -9.804688 6.523438 -9.875 6.140625 -9.875 C 5.191406 -9.875 4.472656 -9.503906 3.984375 -8.765625 C 3.503906 -8.035156 3.265625 -6.957031 3.265625 -5.53125 C 3.265625 -3.988281 3.535156 -2.820312 4.078125 -2.03125 C 4.617188 -1.238281 5.40625 -0.84375 6.4375 -0.84375 C 7 -0.84375 7.523438 -0.953125 8.015625 -1.171875 C 8.515625 -1.390625 9.019531 -1.742188 9.53125 -2.234375 Z M 10.125 -1.65625 "/></g></g></g><g fill="rgb(97.648621%, 100%, 92.939758%)" fill-opacity="1"><g transform="translate(246.186216, 108.276027)"><g><path d="M 6.984375 -5.921875 C 6.222656 -5.628906 5.578125 -5.34375 5.046875 -5.0625 C 4.523438 -4.78125 4.101562 -4.5 3.78125 -4.21875 C 3.457031 -3.9375 3.222656 -3.65625 3.078125 -3.375 C 2.941406 -3.101562 2.875 -2.816406 2.875 -2.515625 C 2.875 -2.078125 3.019531 -1.71875 3.3125 -1.4375 C 3.613281 -1.15625 4.003906 -1.015625 4.484375 -1.015625 C 4.828125 -1.015625 5.148438 -1.101562 5.453125 -1.28125 C 5.753906 -1.457031 6.015625 -1.691406 6.234375 -1.984375 C 6.460938 -2.285156 6.644531 -2.640625 6.78125 -3.046875 C 6.914062 -3.453125 6.984375 -3.882812 6.984375 -4.34375 Z M 6.984375 -6.78125 L 6.984375 -7.609375 C 6.984375 -9.234375 6.289062 -10.046875 4.90625 -10.046875 C 4.675781 -10.046875 4.476562 -10.023438 4.3125 -9.984375 C 4.15625 -9.941406 4.023438 -9.875 3.921875 -9.78125 C 3.816406 -9.6875 3.71875 -9.550781 3.625 -9.375 C 3.539062 -9.207031 3.457031 -9 3.375 -8.75 C 3.226562 -8.363281 3.082031 -8.101562 2.9375 -7.96875 C 2.800781 -7.84375 2.601562 -7.78125 2.34375 -7.78125 C 1.675781 -7.78125 1.34375 -8.113281 1.34375 -8.78125 C 1.34375 -9.425781 1.679688 -9.925781 2.359375 -10.28125 C 3.035156 -10.632812 4.003906 -10.8125 5.265625 -10.8125 C 6.597656 -10.8125 7.546875 -10.570312 8.109375 -10.09375 C 8.671875 -9.625 8.953125 -8.820312 8.953125 -7.6875 L 8.953125 -3.203125 C 8.953125 -1.679688 9.25 -0.921875 9.84375 -0.921875 C 10.03125 -0.921875 10.207031 -0.941406 10.375 -0.984375 C 10.550781 -1.035156 10.703125 -1.160156 10.828125 -1.359375 L 11.109375 -0.875 C 10.953125 -0.570312 10.660156 -0.316406 10.234375 -0.109375 C 9.804688 0.0976562 9.359375 0.203125 8.890625 0.203125 C 8.296875 0.203125 7.851562 0.015625 7.5625 -0.359375 C 7.28125 -0.734375 7.140625 -1.257812 7.140625 -1.9375 L 7.046875 -1.9375 C 6.703125 -1.28125 6.222656 -0.757812 5.609375 -0.375 C 4.992188 0 4.3125 0.1875 3.5625 0.1875 C 2.71875 0.1875 2.054688 -0.0234375 1.578125 -0.453125 C 1.097656 -0.878906 0.859375 -1.457031 0.859375 -2.1875 C 0.859375 -2.5 0.914062 -2.800781 1.03125 -3.09375 C 1.144531 -3.394531 1.328125 -3.675781 1.578125 -3.9375 C 1.835938 -4.207031 2.171875 -4.472656 2.578125 -4.734375 C 2.992188 -4.992188 3.503906 -5.257812 4.109375 -5.53125 Z M 6.984375 -6.78125 "/></g></g></g><g fill="rgb(97.648621%, 100%, 92.939758%)" fill-opacity="1"><g transform="translate(257.272494, 108.276027)"><g><path d="M 9.6875 -1.6875 L 9.609375 -1.6875 C 9.128906 -1 8.617188 -0.507812 8.078125 -0.21875 C 7.535156 0.0625 6.898438 0.203125 6.171875 0.203125 C 5.410156 0.203125 4.710938 0.0664062 4.078125 -0.203125 C 3.441406 -0.484375 2.890625 -0.863281 2.421875 -1.34375 C 1.960938 -1.832031 1.601562 -2.414062 1.34375 -3.09375 C 1.082031 -3.78125 0.953125 -4.523438 0.953125 -5.328125 C 0.953125 -6.109375 1.082031 -6.835938 1.34375 -7.515625 C 1.601562 -8.191406 1.960938 -8.769531 2.421875 -9.25 C 2.890625 -9.738281 3.441406 -10.117188 4.078125 -10.390625 C 4.722656 -10.671875 5.421875 -10.8125 6.171875 -10.8125 C 6.804688 -10.8125 7.375 -10.703125 7.875 -10.484375 C 8.375 -10.273438 8.859375 -9.9375 9.328125 -9.46875 L 9.328125 -11.515625 C 9.328125 -12.273438 9.316406 -12.90625 9.296875 -13.40625 C 9.273438 -13.914062 9.242188 -14.265625 9.203125 -14.453125 C 9.140625 -14.742188 8.953125 -14.945312 8.640625 -15.0625 C 8.335938 -15.1875 7.835938 -15.25 7.140625 -15.25 L 7.140625 -15.859375 L 11.25 -16.609375 L 11.25 -5.0625 C 11.25 -4.144531 11.253906 -3.390625 11.265625 -2.796875 C 11.273438 -2.203125 11.316406 -1.773438 11.390625 -1.515625 C 11.429688 -1.359375 11.476562 -1.222656 11.53125 -1.109375 C 11.59375 -1.003906 11.679688 -0.921875 11.796875 -0.859375 C 11.910156 -0.804688 12.0625 -0.765625 12.25 -0.734375 C 12.445312 -0.710938 12.703125 -0.703125 13.015625 -0.703125 L 13.015625 -0.015625 L 9.6875 0.203125 Z M 9.28125 -6.109375 C 9.28125 -6.796875 9.242188 -7.316406 9.171875 -7.671875 C 9.097656 -8.035156 8.957031 -8.351562 8.75 -8.625 C 8.4375 -9.03125 8.039062 -9.332031 7.5625 -9.53125 C 7.09375 -9.738281 6.628906 -9.84375 6.171875 -9.84375 C 5.203125 -9.84375 4.46875 -9.445312 3.96875 -8.65625 C 3.46875 -7.863281 3.21875 -6.785156 3.21875 -5.421875 C 3.21875 -4.710938 3.28125 -4.070312 3.40625 -3.5 C 3.539062 -2.925781 3.726562 -2.4375 3.96875 -2.03125 C 4.21875 -1.625 4.523438 -1.3125 4.890625 -1.09375 C 5.253906 -0.875 5.679688 -0.765625 6.171875 -0.765625 C 6.410156 -0.765625 6.648438 -0.789062 6.890625 -0.84375 C 7.140625 -0.894531 7.378906 -0.976562 7.609375 -1.09375 C 7.847656 -1.207031 8.066406 -1.335938 8.265625 -1.484375 C 8.460938 -1.640625 8.628906 -1.816406 8.765625 -2.015625 C 8.953125 -2.316406 9.082031 -2.671875 9.15625 -3.078125 C 9.238281 -3.492188 9.28125 -4.0625 9.28125 -4.78125 Z M 9.28125 -6.109375 "/></g></g></g><g fill="rgb(97.648621%, 100%, 92.939758%)" fill-opacity="1"><g transform="translate(270.780141, 108.276027)"><g><path d="M 10.453125 -1.859375 C 9.316406 -0.484375 7.90625 0.203125 6.21875 0.203125 C 5.4375 0.203125 4.722656 0.0703125 4.078125 -0.1875 C 3.441406 -0.445312 2.890625 -0.8125 2.421875 -1.28125 C 1.960938 -1.757812 1.609375 -2.328125 1.359375 -2.984375 C 1.109375 -3.648438 0.984375 -4.382812 0.984375 -5.1875 C 0.984375 -6 1.113281 -6.75 1.375 -7.4375 C 1.644531 -8.132812 2.023438 -8.726562 2.515625 -9.21875 C 3.003906 -9.71875 3.582031 -10.109375 4.25 -10.390625 C 4.925781 -10.671875 5.664062 -10.8125 6.46875 -10.8125 C 7.757812 -10.8125 8.757812 -10.457031 9.46875 -9.75 C 10.175781 -9.050781 10.53125 -8.050781 10.53125 -6.75 C 10.53125 -6.5625 10.492188 -6.445312 10.421875 -6.40625 C 10.347656 -6.363281 10.175781 -6.34375 9.90625 -6.34375 L 3.328125 -6.34375 C 3.296875 -6.238281 3.273438 -6.109375 3.265625 -5.953125 C 3.253906 -5.796875 3.25 -5.625 3.25 -5.4375 C 3.25 -4.75 3.332031 -4.117188 3.5 -3.546875 C 3.664062 -2.984375 3.90625 -2.5 4.21875 -2.09375 C 4.53125 -1.695312 4.898438 -1.390625 5.328125 -1.171875 C 5.765625 -0.953125 6.25 -0.84375 6.78125 -0.84375 C 7.34375 -0.84375 7.863281 -0.960938 8.34375 -1.203125 C 8.820312 -1.453125 9.316406 -1.859375 9.828125 -2.421875 Z M 7.140625 -7.265625 C 7.410156 -7.265625 7.625 -7.269531 7.78125 -7.28125 C 7.945312 -7.300781 8.066406 -7.328125 8.140625 -7.359375 C 8.222656 -7.398438 8.273438 -7.457031 8.296875 -7.53125 C 8.328125 -7.601562 8.34375 -7.703125 8.34375 -7.828125 C 8.34375 -8.441406 8.144531 -8.929688 7.75 -9.296875 C 7.363281 -9.660156 6.828125 -9.84375 6.140625 -9.84375 C 4.703125 -9.84375 3.8125 -8.984375 3.46875 -7.265625 Z M 7.140625 -7.265625 "/></g></g></g><g fill="rgb(97.648621%, 100%, 92.939758%)" fill-opacity="1"><g transform="translate(282.246637, 108.276027)"><g><path d="M 4.421875 -3.203125 C 4.421875 -2.640625 4.429688 -2.195312 4.453125 -1.875 C 4.484375 -1.5625 4.554688 -1.320312 4.671875 -1.15625 C 4.785156 -0.988281 4.945312 -0.875 5.15625 -0.8125 C 5.375 -0.757812 5.675781 -0.722656 6.0625 -0.703125 L 6.0625 0 L 0.734375 0 L 0.734375 -0.703125 C 1.128906 -0.722656 1.4375 -0.757812 1.65625 -0.8125 C 1.882812 -0.875 2.054688 -0.984375 2.171875 -1.140625 C 2.296875 -1.296875 2.375 -1.523438 2.40625 -1.828125 C 2.445312 -2.128906 2.46875 -2.535156 2.46875 -3.046875 L 2.46875 -5.609375 C 2.46875 -6.367188 2.457031 -7 2.4375 -7.5 C 2.414062 -8.007812 2.378906 -8.359375 2.328125 -8.546875 C 2.285156 -8.722656 2.238281 -8.859375 2.1875 -8.953125 C 2.132812 -9.054688 2.046875 -9.132812 1.921875 -9.1875 C 1.796875 -9.25 1.632812 -9.289062 1.4375 -9.3125 C 1.25 -9.332031 1.003906 -9.34375 0.703125 -9.34375 L 0.703125 -10.046875 L 3.96875 -10.8125 L 4.21875 -8.8125 L 4.328125 -8.8125 C 4.921875 -9.488281 5.546875 -9.988281 6.203125 -10.3125 C 6.867188 -10.644531 7.601562 -10.8125 8.40625 -10.8125 C 9.25 -10.8125 9.957031 -10.640625 10.53125 -10.296875 C 11.101562 -9.953125 11.503906 -9.460938 11.734375 -8.828125 L 11.8125 -8.828125 C 12.300781 -9.453125 12.898438 -9.9375 13.609375 -10.28125 C 14.316406 -10.632812 15.070312 -10.8125 15.875 -10.8125 C 16.5 -10.8125 17.066406 -10.707031 17.578125 -10.5 C 18.097656 -10.289062 18.488281 -10.003906 18.75 -9.640625 C 18.988281 -9.335938 19.160156 -8.9375 19.265625 -8.4375 C 19.367188 -7.9375 19.421875 -7.253906 19.421875 -6.390625 L 19.421875 -3.203125 C 19.421875 -2.648438 19.4375 -2.210938 19.46875 -1.890625 C 19.5 -1.578125 19.566406 -1.332031 19.671875 -1.15625 C 19.773438 -0.988281 19.9375 -0.875 20.15625 -0.8125 C 20.382812 -0.757812 20.691406 -0.722656 21.078125 -0.703125 L 21.078125 0 L 15.75 0 L 15.75 -0.703125 C 16.125 -0.710938 16.425781 -0.75 16.65625 -0.8125 C 16.882812 -0.875 17.054688 -0.988281 17.171875 -1.15625 C 17.296875 -1.320312 17.375 -1.550781 17.40625 -1.84375 C 17.4375 -2.132812 17.453125 -2.535156 17.453125 -3.046875 L 17.453125 -5.5625 C 17.453125 -6.320312 17.410156 -6.960938 17.328125 -7.484375 C 17.253906 -8.015625 17.125 -8.441406 16.9375 -8.765625 C 16.75 -9.097656 16.503906 -9.335938 16.203125 -9.484375 C 15.898438 -9.628906 15.535156 -9.703125 15.109375 -9.703125 C 14.523438 -9.703125 13.972656 -9.539062 13.453125 -9.21875 C 12.941406 -8.894531 12.539062 -8.457031 12.25 -7.90625 C 12.1875 -7.769531 12.128906 -7.640625 12.078125 -7.515625 C 12.035156 -7.390625 12 -7.25 11.96875 -7.09375 C 11.9375 -6.9375 11.914062 -6.75 11.90625 -6.53125 C 11.90625 -6.320312 11.90625 -6.0625 11.90625 -5.75 L 11.90625 -3.203125 C 11.90625 -2.648438 11.914062 -2.210938 11.9375 -1.890625 C 11.96875 -1.578125 12.039062 -1.332031 12.15625 -1.15625 C 12.269531 -0.988281 12.441406 -0.875 12.671875 -0.8125 C 12.898438 -0.757812 13.207031 -0.722656 13.59375 -0.703125 L 13.59375 0 L 8.265625 0 L 8.265625 -0.703125 C 8.640625 -0.722656 8.9375 -0.757812 9.15625 -0.8125 C 9.382812 -0.875 9.554688 -0.984375 9.671875 -1.140625 C 9.785156 -1.296875 9.859375 -1.523438 9.890625 -1.828125 C 9.929688 -2.128906 9.953125 -2.535156 9.953125 -3.046875 L 9.953125 -5.5625 C 9.953125 -6.332031 9.910156 -6.984375 9.828125 -7.515625 C 9.742188 -8.046875 9.613281 -8.472656 9.4375 -8.796875 C 9.257812 -9.117188 9.019531 -9.347656 8.71875 -9.484375 C 8.425781 -9.628906 8.066406 -9.703125 7.640625 -9.703125 C 7.046875 -9.703125 6.484375 -9.539062 5.953125 -9.21875 C 5.421875 -8.894531 5.023438 -8.457031 4.765625 -7.90625 C 4.691406 -7.769531 4.632812 -7.640625 4.59375 -7.515625 C 4.550781 -7.390625 4.515625 -7.25 4.484375 -7.09375 C 4.453125 -6.9375 4.429688 -6.75 4.421875 -6.53125 C 4.421875 -6.320312 4.421875 -6.0625 4.421875 -5.75 Z M 4.421875 -3.203125 "/></g></g></g><g fill="rgb(97.648621%, 100%, 92.939758%)" fill-opacity="1"><g transform="translate(303.718798, 108.276027)"><g><path d="M 5.625 3.140625 C 5.007812 4.515625 4.054688 5.203125 2.765625 5.203125 C 1.921875 5.203125 1.5 4.890625 1.5 4.265625 C 1.5 3.929688 1.613281 3.6875 1.84375 3.53125 C 2.082031 3.375 2.515625 3.242188 3.140625 3.140625 C 3.421875 3.097656 3.660156 3.039062 3.859375 2.96875 C 4.054688 2.894531 4.234375 2.800781 4.390625 2.6875 C 4.554688 2.570312 4.703125 2.425781 4.828125 2.25 C 4.960938 2.082031 5.085938 1.875 5.203125 1.625 L 5.90625 0.21875 L 2.0625 -8.125 C 1.882812 -8.5 1.734375 -8.796875 1.609375 -9.015625 C 1.484375 -9.234375 1.347656 -9.40625 1.203125 -9.53125 C 1.066406 -9.664062 0.910156 -9.753906 0.734375 -9.796875 C 0.566406 -9.847656 0.347656 -9.882812 0.078125 -9.90625 L 0.078125 -10.609375 L 5.390625 -10.609375 L 5.390625 -9.90625 C 4.492188 -9.90625 4.046875 -9.6875 4.046875 -9.25 C 4.046875 -9.070312 4.097656 -8.796875 4.203125 -8.421875 C 4.304688 -8.046875 4.441406 -7.664062 4.609375 -7.28125 L 6.8125 -1.96875 L 6.90625 -1.96875 L 8.734375 -6.46875 C 8.898438 -6.90625 9.039062 -7.265625 9.15625 -7.546875 C 9.269531 -7.828125 9.351562 -8.054688 9.40625 -8.234375 C 9.46875 -8.410156 9.507812 -8.554688 9.53125 -8.671875 C 9.550781 -8.796875 9.5625 -8.914062 9.5625 -9.03125 C 9.5625 -9.375 9.460938 -9.601562 9.265625 -9.71875 C 9.078125 -9.84375 8.710938 -9.90625 8.171875 -9.90625 L 8.171875 -10.609375 L 12.5625 -10.609375 L 12.5625 -9.90625 C 12.3125 -9.90625 12.097656 -9.867188 11.921875 -9.796875 C 11.753906 -9.734375 11.578125 -9.582031 11.390625 -9.34375 C 11.210938 -9.113281 11.015625 -8.78125 10.796875 -8.34375 C 10.578125 -7.90625 10.304688 -7.3125 9.984375 -6.5625 Z M 5.625 3.140625 "/></g></g></g></svg>