<svg xmlns="http://www.w3.org/2000/svg" xmlns:xlink="http://www.w3.org/1999/xlink" width="500" zoomAndPan="magnify" viewBox="0 0 375 374.999991" height="500" preserveAspectRatio="xMidYMid meet" version="1.0"><defs><g/><clipPath id="id1"><path d="M 42.714844 149.761719 L 118.464844 149.761719 L 118.464844 225.511719 L 42.714844 225.511719 Z M 42.714844 149.761719 " clip-rule="nonzero"/></clipPath></defs><g fill="rgb(98.039246%, 94.898987%, 91.369629%)" fill-opacity="1"><g transform="translate(131.718819, 186.942531)"><g><path d="M 12.464844 -2.4375 L 20.777344 -14.433594 L 20.777344 0 L 23.546875 0 L 23.546875 -19.390625 L 20.777344 -19.390625 L 12.464844 -7.394531 L 4.15625 -19.390625 L 1.386719 -19.390625 L 1.386719 0 L 4.15625 0 L 4.15625 -14.433594 Z M 12.464844 -2.4375 "/></g></g></g><g fill="rgb(98.039246%, 94.898987%, 91.369629%)" fill-opacity="1"><g transform="translate(159.22403, 186.942531)"><g><path d="M 15.234375 -16.621094 C 16.757812 -16.621094 18.003906 -15.375 18.003906 -13.851562 L 18.003906 -8.308594 L 4.15625 -8.308594 L 4.15625 -13.851562 C 4.15625 -15.375 5.402344 -16.621094 6.925781 -16.621094 Z M 20.777344 -13.851562 C 20.691406 -16.925781 18.199219 -19.390625 15.234375 -19.390625 L 6.925781 -19.390625 C 3.824219 -19.390625 1.386719 -16.785156 1.386719 -13.851562 L 1.386719 0 L 4.15625 0 L 4.15625 -5.539062 L 18.003906 -5.539062 L 18.003906 0 L 20.777344 0 Z M 20.777344 -13.851562 "/></g></g></g><g fill="rgb(98.039246%, 94.898987%, 91.369629%)" fill-opacity="1"><g transform="translate(183.959401, 186.942531)"><g><path d="M 4.15625 -19.390625 L 1.386719 -19.390625 L 1.386719 0 L 4.15625 0 L 4.15625 -8.308594 L 18.003906 -8.308594 L 18.003906 0 L 20.777344 0 L 20.777344 -19.390625 L 18.003906 -19.390625 L 18.003906 -11.082031 L 4.15625 -11.082031 Z M 4.15625 -19.390625 "/></g></g></g><g fill="rgb(98.039246%, 94.898987%, 91.369629%)" fill-opacity="1"><g transform="translate(208.694768, 186.942531)"><g><path d="M 18.003906 -5.539062 C 18.003906 -4.015625 16.757812 -2.769531 15.234375 -2.769531 L 4.15625 -2.769531 L 4.15625 -16.621094 L 15.234375 -16.621094 C 16.757812 -16.621094 18.003906 -15.375 18.003906 -13.851562 Z M 20.777344 -13.851562 C 20.691406 -16.925781 18.199219 -19.390625 15.234375 -19.390625 L 1.386719 -19.390625 L 1.386719 0 L 15.234375 0 C 18.339844 0 20.777344 -2.605469 20.777344 -5.539062 Z M 20.777344 -13.851562 "/></g></g></g><g fill="rgb(98.039246%, 94.898987%, 91.369629%)" fill-opacity="1"><g transform="translate(233.153148, 186.942531)"><g><path d="M 1.386719 0 L 4.15625 0 L 4.15625 -19.390625 L 1.386719 -19.390625 Z M 1.386719 0 "/></g></g></g><g fill="rgb(98.039246%, 94.898987%, 91.369629%)" fill-opacity="1"><g transform="translate(241.269433, 186.942531)"><g><path d="M 20.777344 -19.390625 L 18.003906 -19.390625 L 18.003906 -4.710938 L 4.15625 -19.390625 L 1.386719 -19.390625 L 1.386719 0 L 4.15625 0 L 4.15625 -14.902344 L 18.003906 0 L 20.777344 0 Z M 20.777344 -19.390625 "/></g></g></g><g fill="rgb(98.039246%, 94.898987%, 91.369629%)" fill-opacity="1"><g transform="translate(131.718819, 208.526631)"><g><path d="M 6.960938 0 L 7.96875 0 L 4.945312 -7.980469 L 3.46875 -7.980469 L 0.445312 0 L 1.441406 0 L 2.21875 -2.039062 L 6.179688 -2.039062 Z M 2.519531 -2.84375 L 4.199219 -7.261719 L 5.878906 -2.84375 Z M 2.519531 -2.84375 "/></g></g></g><g fill="rgb(98.039246%, 94.898987%, 91.369629%)" fill-opacity="1"><g transform="translate(141.186835, 208.526631)"><g><path d="M 4.644531 0.203125 C 7.199219 0.203125 8.339844 -1.152344 8.472656 -3.179688 L 7.453125 -3.179688 C 7.34375 -1.558594 6.433594 -0.625 4.621094 -0.625 C 2.628906 -0.625 1.703125 -1.765625 1.703125 -3.996094 C 1.703125 -6.226562 2.652344 -7.367188 4.644531 -7.367188 C 6.371094 -7.367188 7.261719 -6.5625 7.429688 -5.003906 L 8.4375 -5.003906 C 8.242188 -6.984375 7.128906 -8.195312 4.667969 -8.195312 C 1.921875 -8.195312 0.660156 -6.394531 0.660156 -3.996094 C 0.660156 -1.570312 1.894531 0.203125 4.644531 0.203125 Z M 4.644531 0.203125 "/></g></g></g><g fill="rgb(98.039246%, 94.898987%, 91.369629%)" fill-opacity="1"><g transform="translate(151.338852, 208.526631)"><g><path d="M 6.960938 0 L 7.96875 0 L 4.945312 -7.980469 L 3.46875 -7.980469 L 0.445312 0 L 1.441406 0 L 2.21875 -2.039062 L 6.179688 -2.039062 Z M 2.519531 -2.84375 L 4.199219 -7.261719 L 5.878906 -2.84375 Z M 2.519531 -2.84375 "/></g></g></g><g fill="rgb(98.039246%, 94.898987%, 91.369629%)" fill-opacity="1"><g transform="translate(160.806866, 208.526631)"><g><path d="M 4.128906 -7.980469 L 0.816406 -7.980469 L 0.816406 0 L 4.128906 0 C 6.742188 0 7.847656 -1.8125 7.847656 -4.007812 C 7.847656 -6.179688 6.742188 -7.980469 4.128906 -7.980469 Z M 3.949219 -0.804688 L 1.8125 -0.804688 L 1.8125 -7.175781 L 3.949219 -7.175781 C 6.085938 -7.175781 6.804688 -6.035156 6.804688 -4.007812 C 6.804688 -1.980469 6.070312 -0.804688 3.949219 -0.804688 Z M 3.949219 -0.804688 "/></g></g></g><g fill="rgb(98.039246%, 94.898987%, 91.369629%)" fill-opacity="1"><g transform="translate(170.334884, 208.526631)"><g><path d="M 1.8125 -0.804688 L 1.8125 -3.707031 L 6.359375 -3.707031 L 6.359375 -4.5 L 1.8125 -4.5 L 1.8125 -7.175781 L 6.71875 -7.175781 L 6.71875 -7.980469 L 0.816406 -7.980469 L 0.816406 0 L 6.757812 0 L 6.757812 -0.804688 Z M 1.8125 -0.804688 "/></g></g></g><g fill="rgb(98.039246%, 94.898987%, 91.369629%)" fill-opacity="1"><g transform="translate(178.926902, 208.526631)"><g><path d="M 9.539062 -7.980469 L 7.824219 -7.980469 L 5.195312 -0.898438 L 2.554688 -7.980469 L 0.816406 -7.980469 L 0.816406 0 L 1.8125 0 L 1.8125 -7.234375 L 4.511719 0 L 5.855469 0 L 8.542969 -7.234375 L 8.542969 0 L 9.539062 0 Z M 9.539062 -7.980469 "/></g></g></g><g fill="rgb(98.039246%, 94.898987%, 91.369629%)" fill-opacity="1"><g transform="translate(190.362925, 208.526631)"><g><path d="M 6.214844 -7.980469 L 4.390625 -4.679688 C 4.210938 -4.332031 4.019531 -3.996094 3.839844 -3.660156 C 3.648438 -3.996094 3.46875 -4.332031 3.289062 -4.679688 L 1.476562 -7.980469 L 0.335938 -7.980469 L 3.335938 -2.796875 L 3.335938 0 L 4.332031 0 L 4.332031 -2.796875 L 7.332031 -7.980469 Z M 6.214844 -7.980469 "/></g></g></g><g clip-path="url(#id1)"><path fill="rgb(99.609375%, 31.369019%, 17.649841%)" d="M 118.464844 187.636719 L 80.589844 225.511719 L 61.652344 206.574219 L 99.527344 206.574219 L 99.527344 168.699219 L 61.652344 168.699219 L 80.589844 149.761719 Z M 42.714844 187.636719 L 61.652344 206.574219 L 61.652344 168.699219 Z M 90.058594 197.105469 C 95.289062 191.875 95.289062 183.394531 90.058594 178.167969 C 84.828125 172.9375 76.351562 172.9375 71.121094 178.167969 C 65.890625 183.394531 65.890625 191.875 71.121094 197.105469 C 76.351562 202.332031 84.828125 202.332031 90.058594 197.105469 Z M 90.058594 197.105469 " fill-opacity="1" fill-rule="nonzero"/></g></svg>